<?xml version="1.0" encoding="utf-8"?>
<!-- Generator: Adobe Illustrator 18.1.0, SVG Export Plug-In . SVG Version: 6.00 Build 0)  -->
<!DOCTYPE svg PUBLIC "-//W3C//DTD SVG 1.1//EN" "http://www.w3.org/Graphics/SVG/1.1/DTD/svg11.dtd">
<svg version="1.1" id="Layer_1" xmlns="http://www.w3.org/2000/svg" xmlns:xlink="http://www.w3.org/1999/xlink" x="0px" y="0px"
	 width="189px" height="36px" viewBox="0 0 189 36" enable-background="new 0 0 189 36" xml:space="preserve">
<g>
	<g>
		<g>
			<g>
				<g>
					<path fill="#EF7622" d="M26.9,19.5c-1.4,0-2.2,0.7-2.3,3.3c0,1.6-0.9,2-1.7,2c-1.4,0-1.9-1.4-1.9-4.8v-4.5
						c0-2.7,0.1-4.7,1.9-4.7c1,0,1.7,0.7,1.7,1.9c0,1.9,0.8,2.6,2.3,2.6c1.3,0,2.2-0.8,2.2-2.6c0-1.8-1.1-5.5-6.3-5.5
						c-5.5,0-6.5,3.1-6.6,7.3H2.4c-1.7,0-2.4,1.1-2.4,2.2C0,18,0.7,19,2.4,19h13.8v0.6c0,4.8,0.6,8.7,6.6,8.7c5.3,0,6.3-4.2,6.3-6.2
						C29.2,20.4,28.3,19.5,26.9,19.5z"/>
					<path fill="#EF7622" d="M32.5,4.4c0-1.9,0.9-2.7,2.3-2.7c1.4,0,2.3,0.9,2.3,2.7v5.4h0.1c0.7-1.7,2.5-2.6,4.2-2.6
						c2.5,0,4.3,1.6,4.3,5v13.4c0,1.9-0.9,2.7-2.3,2.7c-1.4,0-2.3-0.9-2.3-2.7V13.3c0-1.5-0.8-2.1-1.7-2.1c-1.4,0-2.4,1.1-2.4,3.6
						v10.8c0,1.9-0.9,2.7-2.3,2.7c-1.4,0-2.3-0.9-2.3-2.7V4.4z"/>
					<path fill="#EF7622" d="M62.4,23.5c0,1.3,0.3,2.4,0.3,3c0,1.2-0.8,1.8-2.3,1.8c-1.2,0-2.4-0.6-2.4-2.6l-0.1,0
						c-0.8,1.8-2.5,2.5-4.1,2.5c-2.7,0-4.7-1.6-4.7-5.4c0-3,0.9-4.8,3.2-6l4-2.1c1-0.5,1.4-1.3,1.4-2.1c0-1.1-0.6-2-1.7-2
						c-1.6,0-2,0.8-2.2,2.4c-0.1,0.9-1,1.4-2.2,1.4c-1,0-2.4-0.5-2.4-1.9c0-3.5,2.8-5.3,6.3-5.3c6,0,6.7,2.7,6.7,5.9V23.5z
						 M57.8,17.5l-1.6,1.1c-2,1.4-2.4,2.1-2.4,3.8c0,1.5,0.6,2.4,1.6,2.4c1.5,0,2.4-1.6,2.4-3.7V17.5z"/>
					<path fill="#EF7622" d="M66.2,9.7c0-1.5,0.6-2.4,2.1-2.4c1.5,0,2.1,1,2.1,2.4v1.9h0.1c0.7-2.5,1.8-4.3,3.4-4.3
						c1.2,0,2.2,0.9,2.2,2.9c0,1.4-0.7,2.7-2.8,2.7c-1.4,0-2.6,1-2.6,2.7v9.9c0,1.9-0.9,2.7-2.3,2.7c-1.4,0-2.3-0.9-2.3-2.7V9.7z"/>
					<path fill="#EF7622" d="M77.7,14.8c0-3.8,1-7.5,4.8-7.5c1.7,0,3.5,1,4.2,2.7h0.1c0-1.9,0.8-2.7,2.2-2.7c1.3,0,2.2,0.9,2.2,2.7
						v19c0,4.6-2.3,6.6-6.8,6.6c-3.4,0-5.9-1.1-5.9-3.7c0-1.3,1-2,2.3-2c1,0,1.7,0.6,2,1.3c0.4,0.9,1,1.2,1.6,1.2c2,0,2.4-1.3,2.4-4
						v-2.8h-0.1c-1,1.9-2.1,2.3-4,2.3c-4.1,0-4.8-3.7-4.8-7.8V14.8z M82.5,18.6c0,4.4,0.4,5.6,1.9,5.6c1.1,0,2.2-0.8,2.2-4.9v-3.5
						c0-4-1.3-4.9-2.2-4.9c-1.3,0-2,1.2-2,4.4V18.6z"/>
					<path fill="#EF7622" d="M94.8,15.7c0-5.1,0.7-8.4,6.9-8.4c4.7,0,6.3,2.6,6.3,7.9c0,1.8-0.2,3.2-2.5,3.2h-5.9v2
						c0,2.4,0.2,4.3,2,4.3c1,0,1.7-1,1.7-2.1c0.1-2,1-2.4,2.2-2.4c1.3,0,2.3,0.4,2.3,2.2c0,3.6-2.5,5.8-6.2,5.8
						c-6.2,0-6.9-3.3-6.9-8.4V15.7z M103.4,15.2v-1.7c0-1.5-0.5-2.7-2-2.7c-1.5,0-2,1.2-2,2.7v1.7H103.4z"/>
					<path fill="#7C98AB" d="M111.3,10c0-1.9,0.9-2.7,2.3-2.7s2.3,0.9,2.3,2.7h0.1c0.8-1.7,2.4-2.7,4-2.7c4.1,0,4.8,3.7,4.8,7.8v5.4
						c0,4.1-0.7,7.8-4.8,7.8c-1.7,0-3.2-0.7-4-2.3h-0.1v5.7c0,1.9-0.9,2.7-2.3,2.7s-2.3-0.9-2.3-2.7V10z M115.9,19.9
						c0,2.9,0.5,4.9,2.3,4.9c1.7,0,1.9-1.9,1.9-5.3v-2.8c0-4.4-0.4-5.6-1.9-5.6c-1.1,0-2.2,0.8-2.2,4.9V19.9z"/>
					<path fill="#7C98AB" d="M127.7,15.1c0-4.3,1.4-7.8,6.8-7.8c5.4,0,6.8,3.5,6.8,7.8v5.5c0,4.3-1.4,7.8-6.8,7.8
						c-5.4,0-6.8-3.5-6.8-7.8V15.1z M132.5,20.2c0,3.7,0.6,4.6,2.1,4.6c1.5,0,2.1-0.9,2.1-4.6v-4.8c0-3.6-0.7-4.5-2.1-4.5
						c-1.3,0-2.1,0.9-2.1,4.5V20.2z"/>
					<path fill="#7C98AB" d="M145,10c0-1.9,0.9-2.7,2.3-2.7c1.4,0,2.3,0.9,2.3,2.7v15.6c0,1.9-0.9,2.7-2.3,2.7
						c-1.4,0-2.3-0.9-2.3-2.7V10z"/>
					<path fill="#7C98AB" d="M186.4,14.6h-6.8V9.4c0-1.5-0.9-2.6-2.2-2.6s-2.2,1.1-2.2,2.6v5.1h-8.3v-2.3c0-3.4-1.8-5-4.3-5
						c-1.7,0-3.5,0.9-4.2,2.6h-0.1c0-1.7-0.9-2.6-2.3-2.6c-1.4,0-2.3,0.9-2.3,2.7v15.6c0,1.9,0.9,2.7,2.3,2.7c1.4,0,2.3-0.9,2.3-2.7
						V14.8c0-2.5,0.9-3.6,2.4-3.6c1,0,1.7,0.6,1.7,2.1v12.3c0,1.9,0.9,2.7,2.3,2.7c1.4,0,2.3-0.9,2.3-2.7V19h8.3v6.8
						c0,1.5,0.9,2.6,2.2,2.6s2.2-1.1,2.2-2.6V19h6.8c1.6,0,2.6-0.9,2.6-2.2C189,15.5,188,14.6,186.4,14.6z"/>
				</g>
				<g>
					<path fill="#7C98AB" d="M147.3,0.5c1.4,0,2.6,1.2,2.6,2.6c0,1.4-1.2,2.6-2.6,2.6c-1.4,0-2.6-1.2-2.6-2.6
						C144.7,1.6,145.8,0.5,147.3,0.5z"/>
				</g>
			</g>
		</g>
	</g>
	<g>
		<path fill="#7C98AB" d="M184.1,25.8L184.1,25.8c0-1.6,1.1-2.8,2.4-2.8c1.4,0,2.4,1.2,2.4,2.6v0.1c0,1.5-1.1,2.7-2.4,2.7
			C185.2,28.5,184.1,27.3,184.1,25.8z M188.7,25.8L188.7,25.8c0-1.4-0.9-2.4-2.1-2.4c-1.2,0-2.1,1.1-2.1,2.4v0.1
			c0,1.3,0.9,2.4,2.1,2.4C187.8,28.2,188.7,27.1,188.7,25.8z M185.6,24.3h1c0.6,0,1,0.3,1,0.9c0,0.4-0.2,0.7-0.6,0.8l0.7,1.1h-0.6
			l-0.6-1h-0.5v1h-0.5V24.3z M186.6,25.7c0.4,0,0.6-0.2,0.6-0.5c0-0.3-0.2-0.5-0.6-0.5h-0.5v0.9H186.6z"/>
	</g>
</g>
</svg>
